HIERARCHY
ROOT pelvis
{
  OFFSET 0 100 0
  CHANNELS 6 Xposition Yposition Zposition Zrotation Xrotation Yrotation
  JOINT pelvis_right_femur
  {
    OFFSET -10.78128 -3.44521 -0.5502486
    CHANNELS 3 Zrotation Xrotation Yrotation
    JOINT right_femur_tibia
    {
      OFFSET -0.8047443 -44.0398 -0.1307829
      CHANNELS 3 Zrotation Xrotation Yrotation
      JOINT right_tibia_foot
      {
        OFFSET 3.006224 -47.83518 -5
        CHANNELS 3 Zrotation Xrotation Yrotation
        End Site
        {
          OFFSET 0 -5 15
        }
      }
    }
  }
  JOINT pelvis_left_femur
  {
    OFFSET 10.78128 -3.44521 -0.5502486
    CHANNELS 3 Zrotation Xrotation Yrotation
    JOINT left_femur_tibia
    {
      OFFSET 0.8047443 -44.0398 -0.1307829
      CHANNELS 3 Zrotation Xrotation Yrotation
      JOINT left_tibia_foot
      {
        OFFSET -4.370144 -48.10324 -4.275266
        CHANNELS 3 Zrotation Xrotation Yrotation
        End Site
        {
          OFFSET 0 -5 15
        }
      }
    }
  }
  JOINT pelvis_spine1
  {
    OFFSET 0 6.468898 -3.129235
    CHANNELS 3 Zrotation Xrotation Yrotation
    JOINT spine1
    {
      OFFSET 0 23.15396 4.99043
      CHANNELS 3 Zrotation Xrotation Yrotation
      JOINT spine2
      {
        OFFSET 0 20.79997 -5.064912
        CHANNELS 3 Zrotation Xrotation Yrotation
        JOINT neck
        {
          OFFSET 0 14.38658 9.616178
          CHANNELS 3 Zrotation Xrotation Yrotation
          End Site
          {
            OFFSET 0 20 0
          }
        }
      }
      JOINT right_manubrium
      {
        OFFSET -5.722621 16.35077 3.967754
        CHANNELS 3 Zrotation Xrotation Yrotation
        JOINT right_clavicle
        {
          OFFSET -13.16364 1.694482 -4.693211
          CHANNELS 3 Zrotation Xrotation Yrotation
          JOINT right_humerus
          {
            OFFSET -28.5034 -0.3100689 -2.792744
            CHANNELS 3 Zrotation Xrotation Yrotation
            JOINT right_radius
            {
              OFFSET -25.15693 0.02248979 -1.271978
              CHANNELS 3 Zrotation Xrotation Yrotation
              End Site
              {
                OFFSET -15 0 0
              }
            }
          }
        }
      }
      JOINT left_manubrium
      {
        OFFSET 5.722621 16.35077 3.967754
        CHANNELS 3 Zrotation Xrotation Yrotation
        JOINT left_clavicle
        {
          OFFSET 13.16364 1.694482 -4.693211
          CHANNELS 3 Zrotation Xrotation Yrotation
          JOINT left_humerus
          {
            OFFSET 29.39168 -1.063119 -2.237045
            CHANNELS 3 Zrotation Xrotation Yrotation
            JOINT left_radius
            {
              OFFSET 24.59957 -0.9528479 0.9047498
              CHANNELS 3 Zrotation Xrotation Yrotation
              End Site
              {
                OFFSET 15 -0 -0
              }
            }
          }
        }
      }
    }
  }
}
MOTION
Frames: 21
Frame Time: 0.0416666666667
0 103.5113 0 1.424689 -3.429685 0.3228483 1.379683 -10.43162 6.686416 -0 40.67593 -0 -6.606226 -16.3158 -3.745762 -6.595714 12.33709 -24.84572 -0 5.000261 -0 -0.5129456 -19.50645 23.41648 -0.4662409 -2.222183 4.105398 -0.6435223 7.3114 -6.84751 1.883898 21.95241 8.648107 6.128318 -21.84693 9.025742 6.185125 -18.48287 9.776554 88.3587 35.43404 -23.37739 -0 0 17.25259 -6.461929 8.383167 1.910862 8.129835 -21.46257 -2.844728 -101.8624 43.22272 29.54286 0 0 -26.15082 -9.625022 18.0708 29.2903
0.120522 103.5387 1.142638 1.182768 -2.099456 0.5921982 1.594632 -12.58471 7.570825 -0 42.19603 -0 -6.511033 -16.77879 -4.088773 -6.558136 12.6954 -25.36036 -0 4.309261 -0 -2.032095 -20.52082 22.8319 -0.4287945 -2.235317 4.220968 -0.7167817 7.373864 -6.839089 1.888751 21.86796 8.704059 6.170479 -21.8973 9.084531 6.141489 -18.54963 9.752382 88.44987 35.62849 -23.40351 -0 0 17.32133 -6.43577 8.460327 1.795317 8.228981 -21.55708 -2.796442 -101.7131 43.0885 29.45493 0 0 -26.3814 -9.275086 17.99958 28.92238
0.2309807 103.4079 2.552462 0.4373316 -1.445604 0.7552917 2.749861 -17.94821 6.790038 -0 38.87296 -0 -6.950699 -14.0783 -3.659243 -5.991072 12.99517 -24.26116 -0 5.097351 -0 -2.158671 -21.69155 21.8947 -0.5016958 -1.85603 3.891922 0.06828226 7.476546 -7.251555 1.675064 21.67918 8.741093 5.802559 -22.60925 9.200947 6.053512 -17.95982 10.05564 89.02036 36.53869 -23.8921 -0 0 15.61461 -7.057019 9.462426 2.524214 7.673382 -21.49929 -2.73276 -98.95473 41.10896 26.69043 0 0 -26.46839 -7.427514 17.3818 26.39239
0.3500115 103.1455 4.216283 -0.07564888 -0.7256157 0.8691726 3.564461 -21.99724 6.282497 -0 35.74626 -0 -6.962351 -12.12987 -3.313492 -5.636775 13.19537 -23.33761 -0 5.295402 -0 -2.228581 -22.69018 21.11809 -0.5314789 -1.715708 3.756593 0.347619 7.525853 -7.39685 1.595074 21.62244 8.753168 5.675356 -22.80886 9.217468 6.047577 -17.71561 10.17585 89.20567 36.84904 -24.05854 -0 0 14.95801 -7.403043 9.903916 2.856184 7.46813 -21.49055 -2.729676 -97.97322 40.33477 25.682 0 0 -26.46003 -6.808845 17.16088 25.52417
0.4964214 102.7067 6.25127 -0.5167668 0.2227881 0.9429331 4.424887 -26.31625 5.728275 -0 31.34102 -0 -6.672543 -10.04239 -2.887715 -5.402042 13.38019 -22.12809 -0 5.405873 -0 -1.575879 -23.64259 20.46587 -0.5499424 -1.584086 3.687362 0.5921367 7.599917 -7.539167 1.519709 21.52186 8.776214 5.562091 -23.0408 9.253429 6.010837 -17.52761 10.28243 89.42128 37.20039 -24.22435 -0 0 14.38135 -7.673345 10.28951 3.114295 7.308055 -21.51329 -2.70328 -96.98792 39.49634 24.70402 0 0 -26.56943 -6.034577 16.85733 24.48875
0.674507 102.0678 8.742914 -0.8361341 1.165 1.016536 5.145025 -30.09311 5.057659 -0 26.44241 -0 -6.274157 -7.889474 -2.426794 -5.268361 13.6303 -20.82913 -0 5.630949 -0 -0.8091243 -24.4839 19.7806 -0.5582519 -1.498361 3.62795 0.74121 7.6612 -7.628264 1.4694 21.46308 8.801254 5.500102 -23.14219 9.266204 6.008481 -17.37215 10.35636 89.56315 37.44594 -24.34172 -0 0 13.95968 -7.966215 10.64548 3.331677 7.213248 -21.55166 -2.700224 -96.32266 38.91351 24.0206 0 0 -26.62587 -5.554183 16.6867 23.8386
0.8797887 101.2401 11.7899 -1.064402 2.089522 1.142688 5.740607 -33.23319 4.269567 -0 21.35393 -0 -5.891205 -5.605943 -1.958298 -5.201896 14.01891 -19.45797 -0 6.237532 -0 -0.1819692 -25.12852 18.9149 -0.5673643 -1.419307 3.562915 0.8764312 7.719231 -7.707596 1.422854 21.41786 8.823144 5.444974 -23.20938 9.268141 6.017377 -17.21571 10.42736 89.68282 37.65781 -24.44559 -0 0 13.558 -8.284698 11.00282 3.559834 7.122875 -21.58865 -2.706861 -95.72515 38.37506 23.39448 0 0 -26.65377 -5.152322 16.54261 23.28433
1.097493 100.2791 15.47055 -1.24868 2.89505 1.3786 6.2155 -35.37864 3.409559 -0 16.7515 -0 -5.700475 -3.283653 -1.531748 -5.139139 14.57299 -18.08628 -0 7.554769 -0 -0.1176432 -25.37043 17.68192 -0.5862375 -1.338527 3.458797 1.019931 7.763524 -7.778638 1.376025 21.4103 8.832158 5.38504 -23.22359 9.243607 6.054372 -17.02971 10.50681 89.75284 37.80366 -24.52287 -0 0 13.13333 -8.684517 11.38958 3.854133 7.003019 -21.60191 -2.737602 -95.2029 37.89615 22.81759 0 0 -26.57691 -4.913239 16.45463 22.91406
1.306339 99.30164 19.83017 -1.467847 3.506435 1.767153 6.653926 -36.2422 2.622143 -0 13.34464 -0 -5.849978 -1.161515 -1.206945 -5.000312 15.23187 -16.76398 -0 9.997819 -0 -0.9203857 -24.87655 15.95314 -0.6271712 -1.237546 3.300829 1.21139 7.789588 -7.85442 1.319739 21.44426 8.814555 5.295152 -23.21513 9.185125 6.11504 -16.8026 10.6111 89.75998 37.87146 -24.55816 -0 0 12.64187 -9.172344 11.7914 4.255012 6.808545 -21.56285 -2.7941 -94.70254 37.41915 22.24237 0 0 -26.3548 -4.813916 16.38489 22.68153
1.486552 98.48429 24.85394 -1.808462 3.854099 2.302269 7.179009 -35.62357 2.129818 -0 11.76979 -0 -6.405728 0.3474295 -1.054104 -4.703372 15.77674 -15.53054 -0 14.02656 -0 -2.654161 -23.23303 13.78128 -0.7027113 -1.104821 3.084023 1.47308 7.790935 -7.936473 1.248047 21.53112 8.755701 5.157392 -23.19908 9.081477 6.195302 -16.53779 10.75117 89.6715 37.83471 -24.51453 -0 0 12.07768 -9.754333 12.17789 4.790936 6.502908 -21.44171 -2.879907 -94.22523 36.93015 21.67996 0 0 -25.93528 -4.871245 16.31135 22.59176
1.633265 98.03422 30.44687 -2.308895 3.871472 2.891611 7.853358 -33.49374 2.117685 -0 12.23925 -0 -7.277442 0.7657906 -1.13693 -4.20962 15.78392 -14.3943 -0 20.05405 -0 -4.980322 -20.13129 11.50437 -0.82558 -0.93358 2.829493 1.813711 7.765022 -8.021232 1.155581 21.67447 8.641354 4.956901 -23.20318 8.925231 6.276713 -16.26531 10.93265 89.45436 37.67895 -24.34053 -0 0 11.47513 -10.40593 12.48594 5.45918 6.062585 -21.21333 -2.990639 -93.77951 36.41326 21.16574 0 0 -25.29408 -5.061252 16.191 22.60111
1.768697 98.12021 36.43026 -2.874894 3.493504 3.349658 8.542355 -30.00346 2.559963 -0 14.19136 -0 -8.194535 -0.2072825 -1.462633 -3.588802 14.66465 -13.32511 -0 28.20361 -0 -7.235839 -15.70692 9.650371 -1.004745 -0.7291531 2.583482 2.215529 7.715259 -8.095838 1.039884 21.87177 8.463761 4.690567 -23.24869 8.713442 6.33221 -16.03613 11.15134 89.08232 37.41154 -23.97996 -0 0 10.90963 -11.09481 12.64988 6.225522 5.492719 -20.87032 -3.11552 -93.38694 35.86463 20.7572 0 0 -24.44272 -5.333447 15.985 22.63805
1.93716 98.78806 42.5701 -3.239238 2.686722 3.466646 8.898299 -25.40843 3.14284 -0 16.27641 -0 -8.807815 -2.40264 -1.90415 -3.041088 11.86775 -12.26195 -0 37.97764 -0 -8.771272 -10.76169 8.624273 -1.240479 -0.5095956 2.408136 2.63537 7.65547 -8.142325 0.9022467 22.10881 8.227992 4.370292 -23.34197 8.45125 6.332955 -15.90501 11.39337 88.5526 37.07535 -23.39319 -0 0 10.47077 -11.80653 12.64212 7.038692 4.833752 -20.43477 -3.237901 -93.05273 35.26996 20.49435 0 0 -23.44126 -5.598929 15.66687 22.59343
2.1738 99.91615 48.64006 -3.075939 1.501087 3.149023 8.573371 -19.99783 3.431352 -0 17.00298 -0 -8.881906 -5.087172 -2.202705 -2.783812 7.210444 -11.14484 -0 48.03613 -0 -9.285598 -6.52254 8.4806 -1.519882 -0.299871 2.360976 3.012599 7.611319 -8.140157 0.7491917 22.36078 7.955462 4.024677 -23.45933 8.151546 6.262447 -15.90619 11.6391 87.88371 36.7417 -22.56538 -0 0 10.22733 -12.5876 12.51667 7.864674 4.153205 -19.95723 -3.341594 -92.75588 34.59446 20.37662 0 0 -22.37711 -5.758461 15.23503 22.36108
2.471865 101.2536 54.49352 -2.252474 0.073776 2.513832 7.537634 -14.10283 3.195668 -0 15.72798 -0 -8.44064 -7.292388 -2.145576 -2.837203 1.107645 -9.928998 -0 56.42282 -0 -8.903425 -3.964046 9.025521 -1.818692 -0.1207922 2.482458 3.283736 7.614576 -8.066225 0.5927806 22.59798 7.676789 3.692812 -23.54977 7.830193 6.120661 -16.04857 11.86961 87.08987 36.47954 -21.48607 -0 0 10.2202 -13.55037 12.39436 8.708478 3.52148 -19.4942 -3.415584 -92.4667 33.79136 20.38196 0 0 -21.32327 -5.740954 14.70369 21.88527
2.788688 102.514 60.09313 -0.9934854 -1.417201 1.81111 6.17548 -8.131366 2.583808 -0 13.05187 -0 -7.736413 -8.453436 -1.772436 -2.92161 -5.571016 -8.562224 -0 61.25195 -0 -8.036133 -3.256727 10.0649 -2.110131 0.01537865 2.798522 3.395267 7.687825 -7.893785 0.4495614 22.7948 7.416106 3.411161 -23.55844 7.500592 5.911857 -16.33562 12.06857 86.15626 36.31802 -20.12243 -0 0 10.49342 -14.81511 12.38406 9.598355 2.990677 -19.07787 -3.451703 -92.18474 32.83675 20.51732 0 0 -20.31037 -5.531433 14.08636 21.18479
3.087359 103.4526 65.47888 0.2340859 -2.772709 1.239583 5.020836 -2.507511 1.960611 -0 10.18484 -0 -7.040716 -8.839226 -1.334577 -2.611906 -11.964 -6.998147 -0 61.37433 -0 -7.152762 -3.826076 11.48375 -2.372557 0.09976874 3.32469 3.313364 7.830523 -7.598723 0.3382941 22.9327 7.180725 3.200918 -23.45627 7.174927 5.630216 -16.78163 12.21923 85.05097 36.2345 -18.43095 -0 0 11.1149 -16.42601 12.51134 10.54738 2.591682 -18.70548 -3.437182 -91.94948 31.75291 20.83381 0 0 -19.34185 -5.160489 13.38932 20.32835
3.370533 103.8952 70.72346 1.005215 -3.767915 0.8379819 4.407897 2.467843 1.610174 -0 8.00228 -0 -6.44082 -9.309553 -1.042548 -1.624506 -17.58088 -5.263936 -0 56.65169 -0 -6.571178 -4.854134 13.15295 -2.589326 0.1235542 4.055942 3.031987 8.0195 -7.172968 0.2765298 22.99714 6.965552 3.065439 -23.24834 6.868795 5.264618 -17.39735 12.30426 83.76637 36.17461 -16.40853 -0 0 12.14302 -18.31703 12.72543 11.53376 2.341464 -18.35549 -3.354359 -91.80971 30.59566 21.38181 0 0 -18.42626 -4.675127 12.62213 19.39611
3.678979 103.7473 75.92031 1.140243 -4.210991 0.5168122 4.341634 6.697144 1.587779 -0 6.672334 -0 -5.837552 -10.59555 -0.9115917 0.003429717 -22.28687 -3.491452 -0 47.97694 -0 -6.362976 -5.716544 14.88247 -2.746218 0.08392201 4.95023 2.578677 8.222565 -6.635932 0.2756001 22.97771 6.764499 2.995901 -22.95993 6.600591 4.818462 -18.16022 12.31316 82.35152 36.08059 -14.13787 -0 0 13.56489 -20.3419 12.95708 12.51122 2.243439 -18.01048 -3.192354 -91.78673 29.42668 22.15509 0 0 -17.58754 -4.124118 11.80967 18.46438
4.065415 103.0029 81.18879 0.7397558 -4.064563 0.1554503 4.576649 10.25362 1.773915 -0 5.939961 -0 -5.091117 -12.75828 -0.8166437 1.917058 -26.06472 -1.904369 -0 37.17043 -0 -6.389554 -6.14115 16.48582 -2.833254 -0.007461211 5.926154 2.012576 8.41445 -6.035187 0.3356475 22.87377 6.578024 2.977499 -22.62002 6.38588 4.32308 -19.00316 12.25118 80.9125 35.91015 -11.78973 -0 0 15.2651 -22.32802 13.1631 13.42866 2.280314 -17.66877 -2.960448 -91.86392 28.29873 23.07696 0 0 -16.85081 -3.558942 10.99095 17.60718
4.568692 101.7498 86.66547 0.1076153 -3.516423 -0.3286127 4.760024 13.28814 2.006973 -0 5.640825 -0 -4.160052 -15.16922 -0.6357426 3.555936 -28.84496 -0.8083846 -0 26.58764 -0 -6.416852 -6.175918 17.84748 -2.84889 -0.1232573 6.882102 1.410653 8.586664 -5.434577 0.4444636 22.69837 6.414133 2.993654 -22.25397 6.233151 3.832997 -19.83241 12.14164 79.58365 35.64463 -9.579916 -0 0 17.05052 -24.12253 13.3364 14.24276 2.412321 -17.34348 -2.690621 -92.00011 27.25439 24.02996 0 0 -16.22641 -3.031659 10.20553 16.89254
